<svg xmlns="http://www.w3.org/2000/svg" viewBox="0 0 76.6 147.66"><defs><style>.cls-1{fill:#c3064c;}</style></defs><title>medalla</title><g id="Capa_2" data-name="Capa 2"><g id="Capa_1-2" data-name="Capa 1"><path class="cls-1" d="M73.71,0C76.64,1.57,77.23,3.18,76,6.24q-5.52,13.52-11,27c-.11.27-.21.54-.34.8a2.2,2.2,0,0,1-2.91,1.37,2.17,2.17,0,0,1-1-3c1.22-3.08,2.49-6.13,3.74-9.2L71.51,5.75c.16-.39.31-.79.53-1.34-.42,0-.72-.08-1-.08-4.17,0-8.35,0-12.52,0a1.32,1.32,0,0,0-1.5.93Q44.76,35.3,32.48,65.33c-.07.17-.12.35-.23.66.54,0,1,.08,1.44.08,3.84,0,7.68-.05,11.51,0a2,2,0,0,0,2.3-1.5c2.82-7.09,5.74-14.13,8.62-21.19l.28-.67c.75-1.8,1.81-2.44,3.12-1.86s1.6,1.72.85,3.57L54.54,58.71c-1,2.52-2.05,5-3.11,7.66,3.62,1.53,4.63,4.38,4.46,8-.13,2.59,0,5.19,0,7.78a1.78,1.78,0,0,0,1,1.72,34.28,34.28,0,0,1,15.69,24.09c2.86,17.4-8.84,34.7-26.21,38.79-19.68,4.64-39.42-8.58-42.11-28.61C2.22,103.66,7.67,92.19,19.7,83.93A2,2,0,0,0,20.77,82c-.07-2.88,0-5.77,0-8.65,0-3.4.81-4.72,4.39-7.07q-2.4-5.88-4.81-11.81L.66,6.37C-.64,3.18-.08,1.59,2.89,0H20.45a5.69,5.69,0,0,1,3.13,3.52q6.91,17.08,13.9,34.11c.22.54.48,1.07.83,1.87.37-.88.62-1.44.85-2q7-17.05,13.91-34.11A5.56,5.56,0,0,1,56.15,0ZM68.53,113a30.23,30.23,0,1,0-30.27,30.33A30.26,30.26,0,0,0,68.53,113M28.61,63.33c2.45-6,4.8-11.71,7.09-17.45a2.21,2.21,0,0,0-.14-1.48q-7.94-19.51-15.91-39A1.49,1.49,0,0,0,18,4.31c-3.07,0-6.14,0-9.2,0H4.5l24.11,59M51.54,81c0-2.66,0-5.14,0-7.63,0-2.29-.69-3-3-3H37.14c-3.17,0-6.33,0-9.5,0-1.54,0-2.5.69-2.54,2-.08,2.82,0,5.64,0,8.62a35.08,35.08,0,0,1,26.46,0"/><path class="cls-1" d="M64.15,105.06c0-.1,0-.19,0-.28h0c0-.1,0-.2-.07-.3a2.65,2.65,0,0,0-2.23-2.08h-.36a2.69,2.69,0,0,0-2.38,2.13h0a.06.06,0,0,0,0,0c0,.2-.07.41-.11.61h0a11,11,0,0,1-6.27,8A2.25,2.25,0,0,1,50.8,113c-2-1.52-4-3.1-5.89-4.8-2.2-2-4.26-4.18-6.69-6.57a13.86,13.86,0,0,1-1.44,1.81c-3.55,3.19-6.38,7.16-10.61,9.6a2.09,2.09,0,0,1-2.34.09,11,11,0,0,1-5.45-7h0c0-.1,0-.21,0-.3a3.68,3.68,0,0,0-.27-1.13h0a2.69,2.69,0,0,0-2.6-1.85,2.65,2.65,0,0,0-2.23,2.09,3.71,3.71,0,0,0-.12.71s0,0,0,0c-.9,5.94.62,11.62,4.68,17a3.25,3.25,0,0,1,.48,2.06c0,.25,0,.49-.07.74H40.81l.35,0c4.42,0,8.84,0,13.26,0a3.58,3.58,0,0,1,.67,0h3.54c0-.21,0-.42,0-.63a2.45,2.45,0,0,1,.51-1.58,22.17,22.17,0,0,0,5.06-18.12m0,.14a2.5,2.5,0,0,1,0,.27,2.5,2.5,0,0,0,0-.27m-5-.95a3.47,3.47,0,0,0-.17.54,3.47,3.47,0,0,1,.17-.54m-.26,1.1v0m-43.12,3.88H16l.31-.05a16.37,16.37,0,0,0,6.57,6.61l-3.17,4.66a18.51,18.51,0,0,1-3.88-11.22m20.29,13.3c-4.57.06-9.15,0-14.07,0a17.18,17.18,0,0,1,6.42-7.67c1.87-1.23,1.89-1.21,3.46.34s3,2.89,4.41,4.44a3.67,3.67,0,0,1,.67,2c0,.25-.57.82-.89.82m-3.4-11,5.69-5.45,5.67,5.61-5.7,5.89-5.66-6.05m7.36,11A3.05,3.05,0,0,1,41,119c1.63-1.45,3.11-3.07,4.73-4.55a1.58,1.58,0,0,1,1.37-.34,17.15,17.15,0,0,1,7.19,7.26,7.18,7.18,0,0,1,.35,1.09Zm17.34-1.66L54,115.73a15.85,15.85,0,0,0,6.89-7v0c.2-.4.4-.81.58-1.23,0,.45.08.91.1,1.35h0a18.7,18.7,0,0,1-4.13,12"/></g></g></svg>