<svg xmlns="http://www.w3.org/2000/svg" viewBox="0 0 90.42 89.59"><defs><style>.cls-1{fill:#c3064c;}</style></defs><title>casco</title><g id="Capa_2" data-name="Capa 2"><g id="Capa_1-2" data-name="Capa 1"><polygon class="cls-1" points="57.66 77.12 51.7 71.15 45.22 77.63 38.75 71.15 32.78 77.12 39.26 83.59 39.23 83.62 45.2 89.59 45.22 89.56 45.25 89.59 51.22 83.62 51.19 83.59 57.66 77.12"/><path class="cls-1" d="M39.21,0h12a3.21,3.21,0,0,1,2,3.55c-.06.64,0,1.29,0,1.94s.12.76.67.9a33.75,33.75,0,0,1,13.91,7.31,1.15,1.15,0,0,0,1.34.21A33.62,33.62,0,0,0,85.15,1.79,11.62,11.62,0,0,1,87.24,0H88.3a3.31,3.31,0,0,1,2.12,2.12v7.94c-.15,1-.28,2-.46,2.95A28.85,28.85,0,0,1,79.17,30.74a1,1,0,0,0-.44,1.17,35.75,35.75,0,0,1,.92,9.27c0,.37,0,.74,0,1.15h2.24c2,0,3.05,1,3.06,3q0,4.72,0,9.44c0,2.49-.91,3.41-3.39,3.41H8.28A2.64,2.64,0,0,1,5.5,55.43q0-5.16,0-10.32a2.64,2.64,0,0,1,2.77-2.78c.82,0,1.63,0,2.52,0,0-.82-.06-1.55,0-2.28.25-2.6.49-5.2.86-7.78A1.6,1.6,0,0,0,11,30.53,28.87,28.87,0,0,1,.69,14.05C-.12,10.54.07,7,0,3.44A3.14,3.14,0,0,1,2.14,0H3.2a10.83,10.83,0,0,1,2,1.72,33.62,33.62,0,0,0,16,12.14,1.4,1.4,0,0,0,1.64-.26,33.92,33.92,0,0,1,12-6.7c.8-.26,1.92-.3,2.32-.85s.18-1.65.11-2.49a3.23,3.23,0,0,1,2-3.56m-2,42.29V11.77a29,29,0,0,0-21,30.52Zm16-30.52V42.26H74.31c1-16.27-9.72-27.51-21.09-30.49M42.63,42.26h5.19V5.33H42.63Zm-5,10.61a20.92,20.92,0,0,1-.31-2.59,21.65,21.65,0,0,1,.3-2.6H10.83v5.19Zm42-5.21H53v5.21H79.61ZM5.55,10.35a23.17,23.17,0,0,0,8,15.42L18,18.32a41.42,41.42,0,0,1-12.48-8M76.86,25.72c4.77-3.71,8.08-11,8-15.45a39.32,39.32,0,0,1-12.4,8.05l4.44,7.4M45.19,52.9a2.64,2.64,0,1,0-2.62-2.66,2.66,2.66,0,0,0,2.62,2.66"/></g></g></svg>