<svg width="100" height="100" viewBox="0 0 100 100" fill="none" xmlns="http://www.w3.org/2000/svg">
<g clip-path="url(#clip0_514_2148)">
<path d="M99.72 3.89C99.4 5.89 99.04 7.89 98.72 9.89C97.66 17.27 96.65 24.65 95.52 32.02C95.3384 32.8991 94.8665 33.6916 94.18 34.27C79.3267 46.6833 64.4333 59.0567 49.5 71.39C49.0478 71.6493 48.7053 72.064 48.5361 72.557C48.3668 73.05 48.3824 73.5877 48.58 74.07C48.9913 75.534 48.9914 77.083 48.5804 78.5471C48.1694 80.0113 47.3631 81.3339 46.25 82.37C45 83.7 43.65 85 42.32 86.29C42.0487 86.6085 41.7115 86.8643 41.3316 87.0397C40.9518 87.2151 40.5384 87.3059 40.12 87.3059C39.7016 87.3059 39.2882 87.2151 38.9084 87.0397C38.5285 86.8643 38.1913 86.6085 37.92 86.29C35.92 84.29 33.92 82.29 31.77 80.12C31.26 80.71 30.83 81.27 30.33 81.77C27.91 84.21 25.45 86.62 23.06 89.09C22.6875 89.5042 22.4686 90.0337 22.44 90.59C22.32 94.98 19.93 98.21 15.82 99.37C15.0987 99.563 14.3565 99.6671 13.61 99.68C12.0233 99.7267 10.4333 99.7267 8.83999 99.68C6.65122 99.7213 4.53018 98.9204 2.91489 97.4428C1.29959 95.9653 0.313411 93.9238 0.159994 91.74C-0.119281 89.193 -0.0553769 86.62 0.349994 84.09C1.10999 80 4.66999 77.39 8.99999 77.32C9.31617 77.3301 9.63082 77.2719 9.92246 77.1494C10.2141 77.0269 10.4759 76.8429 10.69 76.61C13.51 73.74 16.37 70.91 19.21 68.06C19.2666 67.9843 19.3168 67.9041 19.36 67.82C19.17 67.61 18.97 67.37 18.75 67.15C16.96 65.36 15.16 63.58 13.39 61.78C13.0715 61.5087 12.8157 61.1715 12.6403 60.7916C12.4649 60.4118 12.3741 59.9984 12.3741 59.58C12.3741 59.1616 12.4649 58.7482 12.6403 58.3684C12.8157 57.9885 13.0715 57.6513 13.39 57.38C14.91 55.83 16.39 54.24 18.06 52.83C19.1635 51.8588 20.5075 51.2017 21.9517 50.9272C23.3958 50.6528 24.8872 50.7712 26.27 51.27C26.5194 51.3943 26.8061 51.4211 27.0743 51.3453C27.3424 51.2695 27.5726 51.0965 27.72 50.86C40.22 35.8067 52.7133 20.7533 65.2 5.7C65.544 5.25369 65.9729 4.87989 66.4621 4.60013C66.9512 4.32038 67.4909 4.1402 68.05 4.07C77.1967 2.79 86.3433 1.48667 95.49 0.16C95.6071 0.122783 95.7182 0.068897 95.82 0L97.38 0C97.9328 0.166761 98.4357 0.467692 98.844 0.875975C99.2523 1.28426 99.5532 1.78721 99.72 2.34V3.89ZM36.15 59.55C36.39 59.27 36.63 58.97 36.9 58.69L69.32 26.27C69.6294 25.9383 69.9637 25.6308 70.32 25.35C70.7063 25.0656 71.1576 24.8822 71.6328 24.8165C72.1081 24.7508 72.5922 24.8048 73.0412 24.9737C73.4903 25.1426 73.89 25.4209 74.2041 25.7835C74.5183 26.1461 74.7368 26.5815 74.84 27.05C74.9519 27.6411 74.897 28.2516 74.6816 28.8132C74.4661 29.3749 74.0985 29.8655 73.62 30.23L41 62.85C40.7451 63.0771 40.4707 63.2812 40.18 63.46L44.59 67.89L45 67.6C59.8067 55.3 74.62 42.9967 89.44 30.69C89.7275 30.4256 89.9207 30.0744 89.99 29.69C90.9033 23.5033 91.8 17.3133 92.68 11.12C92.9 9.6 93.1 8.07 93.32 6.5C93.0902 6.48597 92.8598 6.48597 92.63 6.5C85.15 7.57 77.63 8.64 70.21 9.75C69.6906 9.84557 69.2186 10.1133 68.87 10.51C58.29 23.2233 47.7033 35.9633 37.11 48.73L31.77 55.18L36.15 59.55ZM19.63 59.47L40.36 80.2C40.69 79.81 41.07 79.32 41.5 78.88C43.58 76.78 43.59 75.43 41.5 73.37L26.32 58.16C26.07 57.91 25.82 57.65 25.55 57.42C25.0268 56.9182 24.3299 56.6381 23.605 56.6381C22.8801 56.6381 22.1832 56.9182 21.66 57.42C20.93 58.06 20.28 58.79 19.66 59.42L19.63 59.47ZM5.88999 88.39C5.88999 89.27 5.88999 90.14 5.88999 91.02C5.89171 91.712 6.15054 92.3787 6.61623 92.8906C7.08191 93.4025 7.72122 93.723 8.40999 93.79C10.2884 93.8981 12.1715 93.8981 14.05 93.79C14.5944 93.757 15.114 93.551 15.5331 93.202C15.9522 92.8531 16.2489 92.3794 16.38 91.85C16.6128 91.3489 16.6772 90.786 16.5637 90.2453C16.4501 89.7046 16.1647 89.2151 15.75 88.85C13.95 87.21 12.29 85.43 10.56 83.72C10.3774 83.4971 10.1489 83.3164 9.88999 83.19C9.44011 83.0643 8.96788 83.0401 8.50752 83.1194C8.04716 83.1987 7.6102 83.3793 7.22828 83.6483C6.84635 83.9173 6.52903 84.2678 6.2993 84.6746C6.06957 85.0813 5.93317 85.534 5.89999 86C5.89999 86.81 5.89999 87.62 5.89999 88.43L5.88999 88.39ZM15.62 80.19L19.48 84L27.41 76.08L23.52 72.2L15.6 80.15" fill="#AEAEAE"/>
</g>
<defs>
<clipPath id="clip0_514_2148">
<rect width="99.72" height="99.7" fill="white"/>
</clipPath>
</defs>
</svg>
