<svg width="77" height="148" viewBox="0 0 77 148" fill="none" xmlns="http://www.w3.org/2000/svg">
<g clip-path="url(#clip0_514_2152)">
<path d="M73.71 0C76.64 1.57 77.23 3.18 76 6.24C72.32 15.2533 68.6533 24.2533 65 33.24C64.89 33.51 64.79 33.78 64.66 34.04C64.5677 34.3272 64.4173 34.5923 64.2182 34.8189C64.0191 35.0455 63.7755 35.2287 63.5026 35.3572C63.2297 35.4857 62.9333 35.5567 62.6318 35.5658C62.3303 35.5748 62.0301 35.5218 61.75 35.41C61.481 35.2858 61.2404 35.1078 61.0428 34.887C60.8453 34.6662 60.695 34.4073 60.6013 34.1262C60.5076 33.8452 60.4725 33.5479 60.4981 33.2527C60.5236 32.9576 60.6094 32.6708 60.75 32.41C61.97 29.33 63.24 26.28 64.49 23.21L71.51 5.75C71.67 5.36 71.82 4.96 72.04 4.41C71.62 4.41 71.32 4.33 71.04 4.33C66.87 4.33 62.69 4.33 58.52 4.33C58.1993 4.27256 57.8686 4.33576 57.5917 4.50745C57.3148 4.67914 57.1112 4.94719 57.02 5.26C48.8467 25.2867 40.6667 45.31 32.48 65.33C32.41 65.5 32.36 65.68 32.25 65.99C32.79 65.99 33.25 66.07 33.69 66.07C37.53 66.07 41.37 66.02 45.2 66.07C45.7024 66.1608 46.2205 66.056 46.6481 65.7771C47.0757 65.4982 47.3805 65.0663 47.5 64.57C50.32 57.48 53.24 50.44 56.12 43.38L56.4 42.71C57.15 40.91 58.21 40.27 59.52 40.85C60.83 41.43 61.12 42.57 60.37 44.42L54.54 58.71C53.54 61.23 52.49 63.71 51.43 66.37C55.05 67.9 56.06 70.75 55.89 74.37C55.76 76.96 55.89 79.56 55.89 82.15C55.8665 82.5037 55.9491 82.8563 56.1273 83.1628C56.3054 83.4692 56.571 83.7155 56.89 83.87C61.0934 86.51 64.6734 90.0314 67.3824 94.1907C70.0914 98.3501 71.8648 103.048 72.58 107.96C75.44 125.36 63.74 142.66 46.37 146.75C26.69 151.39 6.95 138.17 4.26 118.14C2.22 103.66 7.67 92.19 19.7 83.93C20.048 83.7487 20.335 83.4691 20.5253 83.1259C20.7155 82.7828 20.8006 82.3912 20.77 82C20.7 79.12 20.77 76.23 20.77 73.35C20.77 69.95 21.58 68.63 25.16 66.28C23.56 62.36 21.9567 58.4233 20.35 54.47L0.659996 6.37C-0.640004 3.18 -0.0800037 1.59 2.89 0H20.45C21.1928 0.329242 21.8564 0.813742 22.3963 1.42091C22.9362 2.02807 23.3398 2.74382 23.58 3.52C28.1867 14.9067 32.82 26.2767 37.48 37.63C37.7 38.17 37.96 38.7 38.31 39.5C38.68 38.62 38.93 38.06 39.16 37.5C43.8267 26.1333 48.4633 14.7633 53.07 3.39C53.3132 2.63861 53.7136 1.94764 54.2447 1.36311C54.7758 0.778582 55.4253 0.313898 56.15 0L73.71 0ZM68.53 113C68.5102 107.027 66.7215 101.194 63.3896 96.2366C60.0576 91.2793 55.3318 87.4202 49.8086 85.1463C44.2854 82.8725 38.2124 82.2857 32.356 83.4602C26.4997 84.6346 21.1225 87.5177 16.9032 91.7454C12.6838 95.9731 9.81147 101.356 8.6486 107.215C7.48574 113.073 8.08451 119.145 10.3693 124.664C12.6541 130.183 16.5226 134.901 21.4865 138.223C26.4503 141.545 32.287 143.322 38.26 143.33C42.2405 143.331 46.1822 142.547 49.8593 141.023C53.5363 139.498 56.8764 137.263 59.6883 134.446C62.5002 131.628 64.7286 128.284 66.2458 124.604C67.763 120.924 68.5392 116.981 68.53 113V113ZM28.61 63.33C31.06 57.33 33.41 51.62 35.7 45.88C35.8256 45.3853 35.7762 44.8624 35.56 44.4C30.2667 31.3933 24.9633 18.3933 19.65 5.4C19.5558 5.04798 19.3359 4.74267 19.0319 4.54182C18.7278 4.34097 18.3607 4.25849 18 4.31C14.93 4.31 11.86 4.31 8.8 4.31H4.5L28.61 63.31V63.33ZM51.54 81C51.54 78.34 51.54 75.86 51.54 73.37C51.54 71.08 50.85 70.37 48.54 70.37H37.14C33.97 70.37 30.81 70.37 27.64 70.37C26.1 70.37 25.14 71.06 25.1 72.37C25.02 75.19 25.1 78.01 25.1 80.99C33.5819 77.5361 43.0781 77.5361 51.56 80.99" fill="#AEAEAE"/>
<path d="M64.15 105.06C64.15 104.96 64.15 104.87 64.15 104.78C64.15 104.68 64.15 104.58 64.08 104.48C63.9678 103.946 63.6933 103.459 63.2942 103.087C62.895 102.715 62.3907 102.475 61.85 102.4H61.49C60.9178 102.454 60.378 102.69 59.9497 103.074C59.5214 103.457 59.2271 103.967 59.11 104.53V104.53C59.11 104.73 59.04 104.94 59 105.14C58.6754 106.879 57.936 108.515 56.8444 109.908C55.7529 111.3 54.3415 112.409 52.73 113.14C52.4181 113.262 52.0831 113.312 51.7492 113.288C51.4153 113.264 51.091 113.165 50.8 113C48.8 111.48 46.8 109.9 44.91 108.2C42.71 106.2 40.65 104.02 38.22 101.63C37.7913 102.272 37.3096 102.878 36.78 103.44C33.23 106.63 30.4 110.6 26.17 113.04C25.8335 113.287 25.4308 113.427 25.0138 113.444C24.5967 113.46 24.1844 113.35 23.83 113.13C22.4854 112.406 21.3063 111.409 20.368 110.204C19.4297 108.999 18.7527 107.611 18.38 106.13V106.13C18.38 106.03 18.38 105.92 18.38 105.83C18.3504 105.441 18.2593 105.06 18.11 104.7C17.9308 104.155 17.5817 103.681 17.1139 103.348C16.6461 103.015 16.0841 102.841 15.51 102.85C14.968 102.925 14.4626 103.167 14.0633 103.541C13.6641 103.915 13.3904 104.404 13.28 104.94C13.2171 105.172 13.1769 105.41 13.16 105.65C13.16 105.65 13.16 105.65 13.16 105.65C12.26 111.59 13.78 117.27 17.84 122.65C18.2252 123.264 18.3942 123.989 18.32 124.71C18.32 124.96 18.32 125.2 18.25 125.45H40.81H41.16C45.58 125.45 50 125.45 54.42 125.45C54.6428 125.429 54.8672 125.429 55.09 125.45H58.63C58.63 125.24 58.63 125.03 58.63 124.82C58.6109 124.25 58.7913 123.691 59.14 123.24C61.2605 120.775 62.8129 117.875 63.6873 114.743C64.5618 111.612 64.7368 108.327 64.2 105.12L64.15 105.06ZM64.2 105.26C64.2049 105.35 64.2049 105.44 64.2 105.53C64.2049 105.44 64.2049 105.35 64.2 105.26V105.26ZM59.2 104.31C59.1287 104.485 59.0719 104.666 59.03 104.85C59.0719 104.666 59.1287 104.485 59.2 104.31V104.31ZM15.82 109.29H16L16.31 109.24C17.8133 112.033 20.0958 114.33 22.88 115.85L19.71 120.51C17.2198 117.297 15.8563 113.355 15.83 109.29H15.82ZM36.12 122.59C31.55 122.65 26.97 122.59 22.05 122.59C23.3819 119.453 25.6166 116.783 28.47 114.92C30.34 113.69 30.36 113.71 31.93 115.26C33.5 116.81 34.93 118.15 36.34 119.7C36.7542 120.287 36.9872 120.982 37.01 121.7C37.01 121.95 36.44 122.52 36.12 122.52V122.59ZM32.72 111.52L38.41 106.07L44.08 111.68L38.38 117.57L32.72 111.52V111.52ZM40.08 122.52C39.8349 121.912 39.792 121.242 39.9577 120.608C40.1234 119.974 40.4889 119.41 41 119C42.63 117.55 44.11 115.93 45.73 114.45C45.9164 114.291 46.1372 114.178 46.3749 114.119C46.6127 114.059 46.8609 114.057 47.1 114.11C50.1786 115.743 52.6867 118.276 54.29 121.37C54.4355 121.723 54.5525 122.088 54.64 122.46L40.08 122.52ZM57.42 120.86L54 115.73C56.9799 114.185 59.3925 111.734 60.89 108.73V108.73C61.09 108.33 61.29 107.92 61.47 107.5C61.47 107.95 61.55 108.41 61.57 108.85C61.6342 113.209 60.1734 117.454 57.44 120.85" fill="#AEAEAE"/>
</g>
<defs>
<clipPath id="clip0_514_2152">
<rect width="76.6" height="147.66" fill="white"/>
</clipPath>
</defs>
</svg>
