<svg width="99" height="116" viewBox="0 0 99 116" fill="none" xmlns="http://www.w3.org/2000/svg">
<g clip-path="url(#clip0_514_2157)">
<path d="M49.95 0C64.2813 8.49635 79.6524 15.1013 95.68 19.65C98.22 20.37 98.56 20.83 98.55 23.44C98.55 32.13 98.68 40.83 98.47 49.52C98.2641 67.1732 91.3954 84.0967 79.24 96.9C73.1257 103.583 65.7997 109.046 57.65 113C55.6419 113.933 53.566 114.712 51.44 115.33C48.9 116.1 46.44 115.33 44.09 114.39C37.3783 111.682 31.1712 107.862 25.73 103.09C17.1143 95.8903 10.3085 86.7691 5.86 76.46C2.6118 69.2781 0.736188 61.5518 0.33 53.68C0 43.31 0.07 32.92 0 22.53C0 21.01 0.6 20.31 2.22 19.84C9.45365 17.8051 16.568 15.368 23.53 12.54C31.5234 9.24549 39.2845 5.41339 46.76 1.07L48.59 0H49.95ZM93.9 38.78H93.73C93.73 34.3 93.73 29.78 93.73 25.35C93.7643 25.1733 93.7617 24.9915 93.7226 24.8158C93.6835 24.6401 93.6085 24.4744 93.5025 24.3289C93.3965 24.1835 93.2616 24.0615 93.1063 23.9705C92.9511 23.8795 92.7787 23.8214 92.6 23.8C77.8356 19.4912 63.6333 13.4492 50.29 5.8C49.9955 5.59835 49.6469 5.49045 49.29 5.49045C48.9331 5.49045 48.5845 5.59835 48.29 5.8C41.2457 9.97245 33.8906 13.5965 26.29 16.64C19.54 19.26 12.64 21.49 5.8 23.88C5.27 24.06 4.86 24.16 4.87 24.88C5.02 34.66 4.87 44.45 5.35 54.21C5.8686 62.4566 8.11014 70.503 11.93 77.83C16.062 86.0954 21.8483 93.4236 28.93 99.36C33.8852 103.651 39.479 107.143 45.51 109.71C46.6033 110.26 47.8043 110.563 49.0277 110.598C50.2512 110.632 51.4673 110.398 52.59 109.91C53.64 109.42 54.75 109.03 55.79 108.5C68.2939 102.324 78.6216 92.4879 85.4 80.3C89.9238 72.2954 92.6215 63.3894 93.3 54.22C93.69 49.09 93.71 43.93 93.9 38.78" fill="#AEAEAE"/>
<path d="M9.58 34.17C9.58 32.78 9.58 31.39 9.58 30C9.49682 29.3351 9.66958 28.6635 10.0633 28.1213C10.4569 27.579 11.042 27.2068 11.7 27.08L24.11 22.69C25.83 22.08 27.11 22.55 27.7 23.94C28.29 25.33 27.53 26.62 25.84 27.24C22.46 28.49 19.08 29.74 15.67 30.87C15.4748 30.901 15.288 30.9714 15.1208 31.0767C14.9536 31.1821 14.8095 31.3203 14.6973 31.483C14.5851 31.6457 14.5071 31.8295 14.4681 32.0232C14.429 32.2169 14.4296 32.4165 14.47 32.61C14.54 34.61 14.47 36.67 14.47 38.7C14.5041 39.2057 14.3812 39.7095 14.1181 40.1427C13.855 40.5759 13.4645 40.9172 13 41.12C12.6127 41.3277 12.1677 41.4021 11.7339 41.3316C11.3001 41.2611 10.9016 41.0497 10.6 40.73C10.0806 40.0685 9.75516 39.2757 9.66 38.44C9.58593 37.0143 9.58593 35.5857 9.66 34.16" fill="#AEAEAE"/>
<path d="M59.76 95.8C60.2318 95.0918 60.7602 94.4229 61.34 93.8C63.62 91.67 66.1 89.75 68.22 87.48C70.49 85.04 72.41 82.28 74.55 79.71C75.0392 79.0651 75.6821 78.5528 76.42 78.22C76.8733 78.0671 77.3655 78.075 77.8136 78.2426C78.2617 78.4102 78.6383 78.7271 78.88 79.14C79.1914 79.5479 79.3601 80.0468 79.3601 80.56C79.3601 81.0732 79.1914 81.5721 78.88 81.98C77.77 83.58 76.65 85.19 75.44 86.72C72.1303 90.8081 68.3585 94.4993 64.2 97.72C63.8359 98.0798 63.3694 98.3181 62.8645 98.4022C62.3596 98.4864 61.8411 98.4122 61.38 98.19C60.9485 97.946 60.5812 97.6029 60.3083 97.1891C60.0353 96.7754 59.8645 96.3027 59.81 95.81" fill="#AEAEAE"/>
<path d="M54 100.07C54.0131 99.4077 54.2854 98.777 54.7585 98.3133C55.2315 97.8495 55.8676 97.5899 56.53 97.59C57.1598 97.608 57.7581 97.869 58.1999 98.3182C58.6416 98.7674 58.8925 99.37 58.9 100C58.8761 100.663 58.6054 101.293 58.1411 101.766C57.6767 102.24 57.0522 102.523 56.39 102.56C56.0675 102.56 55.7484 102.495 55.4517 102.369C55.155 102.243 54.8869 102.058 54.6637 101.825C54.4404 101.592 54.2665 101.317 54.1524 101.015C54.0384 100.714 53.9865 100.392 54 100.07" fill="#AEAEAE"/>
<path d="M32.35 19.49C32.994 19.5053 33.6073 19.7687 34.0619 20.2251C34.5165 20.6816 34.7773 21.2959 34.79 21.94C34.7523 22.5814 34.4739 23.185 34.0104 23.63C33.5468 24.0749 32.9324 24.3285 32.29 24.34C31.665 24.3152 31.0725 24.0551 30.6311 23.6119C30.1898 23.1687 29.9322 22.5751 29.91 21.95C29.9274 21.3065 30.1895 20.6938 30.6428 20.2368C31.0961 19.7797 31.7067 19.5127 32.35 19.49" fill="#AEAEAE"/>
</g>
<defs>
<clipPath id="clip0_514_2157">
<rect width="98.59" height="115.62" fill="white"/>
</clipPath>
</defs>
</svg>
