<svg width="91" height="90" viewBox="0 0 91 90" fill="none" xmlns="http://www.w3.org/2000/svg">
<g clip-path="url(#clip0_514_2143)">
<path d="M57.66 77.12L51.7 71.15L45.22 77.63L38.75 71.15L32.78 77.12L39.26 83.59L39.23 83.62L45.2 89.59L45.22 89.56L45.25 89.59L51.22 83.62L51.19 83.59L57.66 77.12Z" fill="#AEAEAE"/>
<path d="M39.21 0H51.21C51.9027 0.268803 52.4807 0.769605 52.8455 1.41699C53.2102 2.06437 53.339 2.81824 53.21 3.55C53.15 4.19 53.21 4.84 53.21 5.49C53.21 6.14 53.33 6.25 53.88 6.39C59.0272 7.69829 63.7931 10.2028 67.79 13.7C67.9623 13.8725 68.1849 13.9858 68.4257 14.0236C68.6666 14.0613 68.9132 14.0216 69.13 13.91C75.5804 11.597 81.17 7.36822 85.15 1.79C85.7733 1.11266 86.4749 0.51178 87.24 0L88.3 0C88.7953 0.161601 89.2454 0.437826 89.6138 0.806208C89.9822 1.17459 90.2584 1.62473 90.42 2.12V10.06C90.27 11.06 90.14 12.06 89.96 13.01C88.6874 20.0539 84.8416 26.3732 79.17 30.74C78.9747 30.856 78.8246 31.0351 78.7447 31.2478C78.6647 31.4604 78.6595 31.694 78.73 31.91C79.4397 34.9466 79.749 38.0631 79.65 41.18C79.65 41.55 79.65 41.92 79.65 42.33H81.89C83.89 42.33 84.94 43.33 84.95 45.33C84.95 48.4767 84.95 51.6233 84.95 54.77C84.95 57.26 84.04 58.18 81.56 58.18H8.28C7.91226 58.1999 7.54443 58.1426 7.20015 58.0118C6.85587 57.8811 6.54276 57.6797 6.28094 57.4207C6.01912 57.1617 5.81438 56.8508 5.67989 56.508C5.54539 56.1651 5.48412 55.7979 5.5 55.43C5.5 51.99 5.5 48.55 5.5 45.11C5.4799 44.7405 5.53771 44.3709 5.66966 44.0252C5.80162 43.6795 6.00479 43.3653 6.26598 43.1032C6.52717 42.8411 6.84056 42.6368 7.1858 42.5036C7.53104 42.3704 7.90043 42.3112 8.27 42.33C9.09 42.33 9.9 42.33 10.79 42.33C10.79 41.51 10.73 40.78 10.79 40.05C11.04 37.45 11.28 34.85 11.65 32.27C11.7362 31.9484 11.7199 31.6079 11.6033 31.296C11.4868 30.9841 11.2759 30.7163 11 30.53C5.76162 26.3936 2.1183 20.57 0.690001 14.05C-0.119999 10.54 0.070001 7 1.02818e-06 3.44C-0.106897 2.70624 0.049328 1.95832 0.441008 1.32871C0.832688 0.699091 1.43455 0.228402 2.14 0L3.2 0C3.93426 0.489698 4.60591 1.06731 5.2 1.72C9.1718 7.3024 14.7543 11.5381 21.2 13.86C21.4653 13.9973 21.7676 14.0462 22.0627 13.9994C22.3578 13.9526 22.6302 13.8127 22.84 13.6C26.3409 10.5712 30.4247 8.29108 34.84 6.9C35.64 6.64 36.76 6.6 37.16 6.05C37.56 5.5 37.34 4.4 37.27 3.56C37.1424 2.82704 37.2717 2.0725 37.6361 1.42387C38.0005 0.775236 38.5776 0.272284 39.27 0L39.21 0ZM37.27 42.29V11.77C30.7593 13.6088 25.0963 17.6661 21.2613 23.2396C17.4264 28.8131 15.6607 35.5521 16.27 42.29H37.27ZM53.27 11.77V42.26H74.31C75.31 25.99 64.59 14.75 53.22 11.77H53.27ZM42.63 42.26H47.82V5.33H42.63V42.26ZM37.63 52.87C37.4729 52.014 37.3694 51.1489 37.32 50.28C37.3675 49.4081 37.4677 48.5398 37.62 47.68H10.83V52.87H37.63ZM79.63 47.66H53V52.87H79.61L79.63 47.66ZM5.55 10.35C6.11598 16.333 8.98447 21.862 13.55 25.77L18 18.32C13.3928 16.4255 9.16508 13.7154 5.52 10.32L5.55 10.35ZM76.86 25.72C81.63 22.01 84.94 14.72 84.86 10.27C81.2728 13.7132 77.0651 16.4448 72.46 18.32L76.9 25.72H76.86ZM45.19 52.9C45.7121 52.9039 46.2237 52.753 46.66 52.4662C47.0963 52.1794 47.4378 51.7696 47.6413 51.2888C47.8447 50.8079 47.901 50.2775 47.803 49.7646C47.705 49.2518 47.4572 48.7795 47.0908 48.4075C46.7244 48.0355 46.2559 47.7805 45.7446 47.6748C45.2333 47.569 44.7021 47.6173 44.2182 47.8134C43.7343 48.0096 43.3194 48.3448 43.0261 48.7767C42.7327 49.2087 42.574 49.7179 42.57 50.24C42.5699 50.9386 42.8447 51.6092 43.3349 52.1069C43.8251 52.6046 44.4915 52.8895 45.19 52.9" fill="#AEAEAE"/>
</g>
<defs>
<clipPath id="clip0_514_2143">
<rect width="90.42" height="89.59" fill="white"/>
</clipPath>
</defs>
</svg>
