<svg xmlns="http://www.w3.org/2000/svg" viewBox="0 0 98.59 115.62"><defs><style>.cls-1{fill:#c3064c;}</style></defs><title>escudo</title><g id="Capa_2" data-name="Capa 2"><g id="Capa_1-2" data-name="Capa 1"><path class="cls-1" d="M49.95,0A193,193,0,0,0,95.68,19.65c2.54.72,2.88,1.18,2.87,3.79,0,8.69.13,17.39-.08,26.08A70,70,0,0,1,79.24,96.9,71.65,71.65,0,0,1,57.65,113a43.77,43.77,0,0,1-6.21,2.33c-2.54.77-5,0-7.35-.94a64.37,64.37,0,0,1-18.36-11.3A71.75,71.75,0,0,1,5.86,76.46,63.18,63.18,0,0,1,.33,53.68C0,43.31.07,32.92,0,22.53c0-1.52.6-2.22,2.22-2.69a201.9,201.9,0,0,0,21.31-7.3A191.48,191.48,0,0,0,46.76,1.07L48.59,0ZM93.9,38.78h-.17c0-4.48,0-9,0-13.43A1.31,1.31,0,0,0,92.6,23.8a194.81,194.81,0,0,1-42.31-18,1.77,1.77,0,0,0-2,0,159.55,159.55,0,0,1-22,10.84c-6.75,2.62-13.65,4.85-20.49,7.24-.53.18-.94.28-.93,1,.15,9.78,0,19.57.48,29.33a59.12,59.12,0,0,0,6.58,23.62,67.45,67.45,0,0,0,17,21.53,63.06,63.06,0,0,0,16.58,10.35,8.35,8.35,0,0,0,7.08.2c1.05-.49,2.16-.88,3.2-1.41a68.69,68.69,0,0,0,29.61-28.2A62.36,62.36,0,0,0,93.3,54.22c.39-5.13.41-10.29.6-15.44"/><path class="cls-1" d="M9.58,34.17c0-1.39,0-2.78,0-4.17a2.64,2.64,0,0,1,2.12-2.92l12.41-4.39c1.72-.61,3-.14,3.59,1.25s-.17,2.68-1.86,3.3c-3.38,1.25-6.76,2.5-10.17,3.63a1.46,1.46,0,0,0-1.2,1.74c.07,2,0,4.06,0,6.09A2.46,2.46,0,0,1,13,41.12a2,2,0,0,1-2.4-.39,4.54,4.54,0,0,1-.94-2.29,41.25,41.25,0,0,1,0-4.28"/><path class="cls-1" d="M59.76,95.8a15.76,15.76,0,0,1,1.58-2c2.28-2.13,4.76-4.05,6.88-6.32,2.27-2.44,4.19-5.2,6.33-7.77a4.85,4.85,0,0,1,1.87-1.49,2.08,2.08,0,0,1,2.46.92,2.34,2.34,0,0,1,0,2.84c-1.11,1.6-2.23,3.21-3.44,4.74a68.16,68.16,0,0,1-11.24,11,2.48,2.48,0,0,1-2.82.47,3.13,3.13,0,0,1-1.57-2.38"/><path class="cls-1" d="M54,100.07a2.53,2.53,0,0,1,2.53-2.48A2.44,2.44,0,0,1,58.9,100a2.66,2.66,0,0,1-2.51,2.56A2.39,2.39,0,0,1,54,100.07"/><path class="cls-1" d="M32.35,19.49a2.5,2.5,0,0,1,2.44,2.45,2.55,2.55,0,0,1-2.5,2.4,2.48,2.48,0,0,1-2.38-2.39,2.53,2.53,0,0,1,2.44-2.46"/><path class="cls-1" d="M81.59,43.13c0-.12,0-.24,0-.36h0c0-.13-.05-.25-.09-.38a3.36,3.36,0,0,0-2.82-2.64h-.45a3.4,3.4,0,0,0-3,2.7h0a.08.08,0,0,0,0,0c0,.26-.09.52-.14.77a0,0,0,0,0,0,0,14,14,0,0,1-7.94,10.09,2.84,2.84,0,0,1-2.39-.18c-2.57-1.92-5.09-3.93-7.46-6.08-2.79-2.55-5.4-5.29-8.48-8.32a17.64,17.64,0,0,1-1.82,2.3c-4.49,4-8.09,9.07-13.45,12.17a2.65,2.65,0,0,1-3,.12,13.9,13.9,0,0,1-6.91-8.87h0c0-.13,0-.26,0-.39a4.63,4.63,0,0,0-.34-1.43h0a3.4,3.4,0,0,0-3.29-2.35,3.36,3.36,0,0,0-2.82,2.64,4.69,4.69,0,0,0-.15.9s0,0,0,0c-1.14,7.52.78,14.72,5.92,21.5A4.12,4.12,0,0,1,23.5,68c0,.31,0,.62-.09.93H52l.44,0c5.6,0,11.2,0,16.8,0a4.46,4.46,0,0,1,.85.06H74.6c0-.27,0-.53-.06-.8a3.12,3.12,0,0,1,.64-2,28.08,28.08,0,0,0,6.41-23m0,.17a3.12,3.12,0,0,1,0,.35,3.12,3.12,0,0,0,0-.35m-6.27-1.2a4.5,4.5,0,0,0-.22.68,4.5,4.5,0,0,1,.22-.68M75,43.5v0h0v0M20.38,48.42h.22a2.34,2.34,0,0,0,.39-.07,20.75,20.75,0,0,0,8.32,8.38l-4,5.91a23.45,23.45,0,0,1-4.91-14.21M46.08,65.28c-5.79.07-11.6.05-17.83.05a21.77,21.77,0,0,1,8.14-9.72c2.37-1.56,2.39-1.54,4.38.44s3.82,3.66,5.59,5.62a4.66,4.66,0,0,1,.85,2.57c0,.32-.72,1-1.13,1m-4.31-14L49,44.41l7.19,7.1L49,59l-7.17-7.67m9.33,13.9a3.87,3.87,0,0,1,1.19-4.38c2.07-1.84,3.95-3.89,6-5.76A2,2,0,0,1,60,54.64a21.73,21.73,0,0,1,9.11,9.2,9.34,9.34,0,0,1,.44,1.38Zm22-2.11-4.36-6.44a20.08,20.08,0,0,0,8.73-8.91l0,0c.26-.51.5-1,.73-1.56.06.57.1,1.15.12,1.71h0c.19,5.62-1.77,10.56-5.23,15.23"/></g></g></svg>