<svg xmlns="http://www.w3.org/2000/svg" viewBox="0 0 99.72 99.7"><defs><style>.cls-1{fill:#c3064c;}</style></defs><title>espada</title><g id="Capa_2" data-name="Capa 2"><g id="Capa_1-2" data-name="Capa 1"><path class="cls-1" d="M99.72,3.89c-.32,2-.68,4-1,6-1.06,7.38-2.07,14.76-3.2,22.13a4,4,0,0,1-1.34,2.25Q71.9,52.89,49.5,71.39a2.15,2.15,0,0,0-.92,2.68,8.28,8.28,0,0,1-2.33,8.3C45,83.7,43.65,85,42.32,86.29a2.89,2.89,0,0,1-4.4,0c-2-2-4-4-6.15-6.17-.51.59-.94,1.15-1.44,1.65-2.42,2.44-4.88,4.85-7.27,7.32a2.43,2.43,0,0,0-.62,1.5c-.12,4.39-2.51,7.62-6.62,8.78a9.16,9.16,0,0,1-2.21.31q-2.38.07-4.77,0A8.54,8.54,0,0,1,.16,91.74a28.63,28.63,0,0,1,.19-7.65C1.11,80,4.67,77.39,9,77.32a2.2,2.2,0,0,0,1.69-.71c2.82-2.87,5.68-5.7,8.52-8.55a1.69,1.69,0,0,0,.15-.24c-.19-.21-.39-.45-.61-.67-1.79-1.79-3.59-3.57-5.36-5.37a2.89,2.89,0,0,1,0-4.4c1.52-1.55,3-3.14,4.67-4.55a8.21,8.21,0,0,1,8.21-1.56,1.12,1.12,0,0,0,1.45-.41Q46.47,28.28,65.2,5.7a4.27,4.27,0,0,1,2.85-1.63Q81.77,2.15,95.49.16A1.28,1.28,0,0,0,95.82,0h1.56a3.5,3.5,0,0,1,2.34,2.34ZM36.15,59.55c.24-.28.48-.58.75-.86L69.32,26.27a8.91,8.91,0,0,1,1-.92,2.88,2.88,0,0,1,4.52,1.7,3.24,3.24,0,0,1-1.22,3.18L41,62.85a5.8,5.8,0,0,1-.82.61l4.41,4.43L45,67.6Q67.21,49.15,89.44,30.69a1.79,1.79,0,0,0,.55-1q1.37-9.28,2.69-18.57c.22-1.52.42-3.05.64-4.62a5.66,5.66,0,0,0-.69,0c-7.48,1.07-15,2.14-22.42,3.25a2.35,2.35,0,0,0-1.34.76Q53,29.58,37.11,48.73l-5.34,6.45,4.38,4.37m-16.52-.08L40.36,80.2c.33-.39.71-.88,1.14-1.32,2.08-2.1,2.09-3.45,0-5.51L26.32,58.16c-.25-.25-.5-.51-.77-.74a2.81,2.81,0,0,0-3.89,0c-.73.64-1.38,1.37-2,2M5.89,88.39c0,.88,0,1.75,0,2.63a2.79,2.79,0,0,0,2.52,2.77,49.1,49.1,0,0,0,5.64,0,2.56,2.56,0,0,0,2.33-1.94,2.56,2.56,0,0,0-.63-3c-1.8-1.64-3.46-3.42-5.19-5.13a2,2,0,0,0-.67-.53A3.15,3.15,0,0,0,5.9,86c0,.81,0,1.62,0,2.43m9.72-8.24L19.48,84l7.93-7.92-3.89-3.88L15.6,80.15"/></g></g></svg>